<svg width="24" height="29" viewBox="0 0 24 29" fill="none" xmlns="http://www.w3.org/2000/svg">
<g clip-path="url(#clip0_284_5598)">
<path fill-rule="evenodd" clip-rule="evenodd" d="M2.57469 17.1613C3.11896 17.7025 3.11895 18.5798 2.57467 19.1209L2.5468 19.1487C2.00252 19.6898 1.12007 19.6897 0.5758 19.1486C0.0315294 18.6075 0.0315378 17.7301 0.575819 17.189L0.60369 17.1613C1.14797 16.6201 2.03042 16.6202 2.57469 17.1613Z" fill="#E5E5E5"/>
<path fill-rule="evenodd" clip-rule="evenodd" d="M9.12669 17.5787C9.66999 18.1208 9.66837 18.9981 9.12309 19.5383L5.26255 23.3627C4.71729 23.9028 3.83485 23.9013 3.29156 23.3592C2.74827 22.8171 2.74986 21.9397 3.29512 21.3996L7.15569 17.5751C7.70097 17.035 8.58339 17.0366 9.12669 17.5787Z" fill="#E5E5E5"/>
<path fill-rule="evenodd" clip-rule="evenodd" d="M14.3658 24.1622C14.7928 23.5254 15.6581 23.3534 16.2985 23.7779L16.3822 23.8333C17.0226 24.2578 17.1957 25.1181 16.7687 25.7548C16.3417 26.3916 15.4764 26.5637 14.836 26.1392L14.7523 26.0838C14.1119 25.6593 13.9389 24.7989 14.3658 24.1622Z" fill="#E5E5E5"/>
<path fill-rule="evenodd" clip-rule="evenodd" d="M23.5637 17.0781C24.108 17.6193 24.108 18.4966 23.5637 19.0377L21.6683 20.9222C21.1239 21.4633 20.2415 21.4633 19.6973 20.9222C19.153 20.3811 19.153 19.5037 19.6973 18.9626L21.5927 17.0781C22.137 16.537 23.0194 16.537 23.5637 17.0781Z" fill="#E5E5E5"/>
<path fill-rule="evenodd" clip-rule="evenodd" d="M23.5918 10.1082C24.136 10.6494 24.136 11.5267 23.5918 12.0678L9.58501 25.9937C9.04075 26.5348 8.15827 26.5348 7.61401 25.9937C7.06975 25.4526 7.06975 24.5752 7.61401 24.0341L21.6208 10.1082C22.165 9.56708 23.0474 9.56708 23.5918 10.1082Z" fill="#E5E5E5"/>
<path fill-rule="evenodd" clip-rule="evenodd" d="M20.943 5.82666C21.4873 6.36778 21.4873 7.24516 20.943 7.7863L12.8874 15.7954C12.3431 16.3365 11.4606 16.3365 10.9164 15.7954C10.3721 15.2543 10.3721 14.3769 10.9164 13.8357L18.972 5.82666C19.5163 5.28552 20.3987 5.28552 20.943 5.82666Z" fill="#E5E5E5"/>
<path fill-rule="evenodd" clip-rule="evenodd" d="M16.6912 3.11002C17.2358 3.65079 17.2364 4.52814 16.6925 5.06964L6.33724 15.3789C5.79335 15.9204 4.91091 15.921 4.36626 15.3803C3.82163 14.8395 3.82103 13.9622 4.36494 13.4207L14.7202 3.11134C15.2641 2.56984 16.1465 2.56926 16.6912 3.11002Z" fill="#E5E5E5"/>
<path fill-rule="evenodd" clip-rule="evenodd" d="M6.43656 6.41031C6.97992 6.95241 6.97842 7.82973 6.4332 8.36991L2.37751 12.3883C1.83229 12.9285 0.949848 12.927 0.406512 12.385C-0.136826 11.8429 -0.135307 10.9656 0.409904 10.4253L4.46559 6.40695C5.0108 5.86674 5.89324 5.86825 6.43656 6.41031Z" fill="#E5E5E5"/>
<path fill-rule="evenodd" clip-rule="evenodd" d="M8.92072 2.39999C9.6904 2.39999 10.3144 3.02038 10.3144 3.78566V3.92422C10.3144 4.6895 9.6904 5.30988 8.92072 5.30988C8.15098 5.30988 7.52698 4.6895 7.52698 3.92422V3.78566C7.52698 3.02038 8.15098 2.39999 8.92072 2.39999Z" fill="#E5E5E5"/>
</g>
<defs>
<clipPath id="clip0_284_5598">
<rect width="24" height="28.8" fill="white"/>
</clipPath>
</defs>
</svg>
