<svg width="24" height="24" viewBox="0 0 24 24" fill="none" xmlns="http://www.w3.org/2000/svg">
<path fill-rule="evenodd" clip-rule="evenodd" d="M2.57469 14.7614C3.11896 15.3025 3.11895 16.1798 2.57467 16.721L2.5468 16.7487C2.00252 17.2898 1.12007 17.2898 0.5758 16.7486C0.0315294 16.2075 0.0315378 15.3302 0.575819 14.789L0.60369 14.7613C1.14797 14.2202 2.03042 14.2202 2.57469 14.7614Z" fill="#171717"/>
<path fill-rule="evenodd" clip-rule="evenodd" d="M9.12669 15.1787C9.66999 15.7208 9.66837 16.5981 9.12309 17.1383L5.26255 20.9627C4.71729 21.5028 3.83485 21.5013 3.29156 20.9592C2.74827 20.4171 2.74986 19.5397 3.29512 18.9996L7.15569 15.1751C7.70097 14.635 8.58339 14.6366 9.12669 15.1787Z" fill="#171717"/>
<path fill-rule="evenodd" clip-rule="evenodd" d="M14.3658 21.7622C14.7928 21.1254 15.6581 20.9534 16.2985 21.3779L16.3822 21.4333C17.0226 21.8578 17.1957 22.7181 16.7687 23.3548C16.3417 23.9916 15.4764 24.1637 14.836 23.7392L14.7523 23.6838C14.1119 23.2593 13.9389 22.3989 14.3658 21.7622Z" fill="#171717"/>
<path fill-rule="evenodd" clip-rule="evenodd" d="M23.5637 14.6781C24.108 15.2193 24.108 16.0966 23.5637 16.6377L21.6683 18.5222C21.1239 19.0634 20.2415 19.0634 19.6973 18.5222C19.153 17.9811 19.153 17.1038 19.6973 16.5626L21.5927 14.6781C22.137 14.137 23.0194 14.137 23.5637 14.6781Z" fill="#171717"/>
<path fill-rule="evenodd" clip-rule="evenodd" d="M23.5918 7.70822C24.136 8.24936 24.136 9.12674 23.5918 9.66782L9.58501 23.5937C9.04075 24.1348 8.15827 24.1348 7.61401 23.5937C7.06975 23.0526 7.06975 22.1752 7.61401 21.6341L21.6208 7.70822C22.165 7.16708 23.0474 7.16708 23.5918 7.70822Z" fill="#171717"/>
<path fill-rule="evenodd" clip-rule="evenodd" d="M20.943 3.42666C21.4873 3.96779 21.4873 4.84517 20.943 5.38631L12.8874 13.3954C12.3431 13.9365 11.4606 13.9365 10.9164 13.3954C10.3721 12.8543 10.3721 11.9769 10.9164 11.4357L18.972 3.42666C19.5163 2.88553 20.3987 2.88553 20.943 3.42666Z" fill="#171717"/>
<path fill-rule="evenodd" clip-rule="evenodd" d="M16.6912 0.710031C17.2358 1.2508 17.2364 2.12815 16.6925 2.66965L6.33723 12.9789C5.79335 13.5204 4.91091 13.521 4.36626 12.9803C3.82163 12.4395 3.82103 11.5622 4.36494 11.0207L14.7202 0.711351C15.2641 0.169851 16.1465 0.169263 16.6912 0.710031Z" fill="#171717"/>
<path fill-rule="evenodd" clip-rule="evenodd" d="M6.43656 4.01031C6.97992 4.55241 6.97842 5.42973 6.4332 5.96991L2.37751 9.98835C1.83229 10.5285 0.949848 10.527 0.406512 9.98499C-0.136826 9.44289 -0.135307 8.56557 0.409904 8.02533L4.46559 4.00695C5.0108 3.46675 5.89324 3.46826 6.43656 4.01031Z" fill="#171717"/>
<path fill-rule="evenodd" clip-rule="evenodd" d="M8.92072 0C9.6904 0 10.3144 0.620382 10.3144 1.38566V1.52423C10.3144 2.2895 9.6904 2.90989 8.92072 2.90989C8.15098 2.90989 7.52698 2.2895 7.52698 1.52423V1.38566C7.52698 0.620382 8.15098 0 8.92072 0Z" fill="#171717"/>
</svg>
